<svg xmlns="http://www.w3.org/2000/svg" viewBox="0 0 28 33"><defs><style>.cls-1{fill:#5e7e9b;}</style></defs><g id="Ebene_2" data-name="Ebene 2"><g id="Ebene_1-2" data-name="Ebene 1"><path class="cls-1" d="M27.5,0H.5A.5.5,0,0,0,0,.5V12A21.91,21.91,0,0,0,5.83,27.26a.28.28,0,0,0,.08.11.24.24,0,0,0,.08.06A23.8,23.8,0,0,0,13.82,33a.55.55,0,0,0,.36,0c.13,0,13.82-5.36,13.82-21V.5A.5.5,0,0,0,27.5,0ZM27,5.58,6.29,26.28A20.64,20.64,0,0,1,2.46,20l19-19H27ZM1,1H20.08l-18,18A22.23,22.23,0,0,1,1,12ZM14,32A23,23,0,0,1,7,27L27,7v5C27,26,15.56,31.3,14,32Z"/></g></g></svg>