<svg xmlns="http://www.w3.org/2000/svg" viewBox="0 0 35.74 33"><defs><style>.cls-1{fill:#5e7e9b;}</style></defs><g id="Ebene_2" data-name="Ebene 2"><g id="Ebene_1-2" data-name="Ebene 1"><path class="cls-1" d="M5.81,7a1,1,0,1,0-1-1A1,1,0,0,0,5.81,7Z"/><path class="cls-1" d="M10.64,7a1,1,0,1,0-1-1A1,1,0,0,0,10.64,7Z"/><path class="cls-1" d="M35.74,16.5A7.29,7.29,0,0,0,29,9.24V3.7A3.7,3.7,0,0,0,25.26,0H3.7A3.7,3.7,0,0,0,0,3.7V29.3A3.7,3.7,0,0,0,3.7,33H25.26A3.7,3.7,0,0,0,29,29.3V23.76A7.28,7.28,0,0,0,35.74,16.5ZM3.7,1H25.26A2.7,2.7,0,0,1,28,3.7V9.24a7.2,7.2,0,0,0-3.84,1.43H1v-7A2.7,2.7,0,0,1,3.7,1ZM1,11.67H23a7.24,7.24,0,0,0,0,9.66H1ZM25.26,32H3.7A2.7,2.7,0,0,1,1,29.3v-7H24.1A7.12,7.12,0,0,0,28,23.76V29.3A2.7,2.7,0,0,1,25.26,32Zm3.19-9.21a6.29,6.29,0,1,1,6.29-6.29A6.29,6.29,0,0,1,28.45,22.79Z"/><path class="cls-1" d="M30.44,14.62l-2.69,2.7L26.47,16a.51.51,0,0,0-.71,0,.5.5,0,0,0,0,.71l1.63,1.63a.49.49,0,0,0,.36.15.49.49,0,0,0,.35-.15l3-3a.5.5,0,1,0-.71-.71Z"/></g></g></svg>