<svg xmlns="http://www.w3.org/2000/svg" viewBox="0 0 33 28"><defs><style>.cls-1{fill:#5e7e9b;}</style></defs><g id="Ebene_2" data-name="Ebene 2"><g id="Ebene_1-2" data-name="Ebene 1"><path class="cls-1" d="M30.5,0H2.5A2.5,2.5,0,0,0,0,2.5v23A2.5,2.5,0,0,0,2.5,28h28A2.5,2.5,0,0,0,33,25.5V2.5A2.5,2.5,0,0,0,30.5,0ZM2.5,1h28A1.5,1.5,0,0,1,32,2.5V7.78H1V2.5A1.5,1.5,0,0,1,2.5,1Zm28,26H2.5A1.5,1.5,0,0,1,1,25.5V8.78H32V25.5A1.5,1.5,0,0,1,30.5,27Z"/><path class="cls-1" d="M4.43,4.91h.09a.5.5,0,0,0,.5-.5.5.5,0,0,0-.5-.5H4.33a.46.46,0,0,0-.45.5A.55.55,0,0,0,4.43,4.91Z"/><path class="cls-1" d="M8.08,4.91h.1a.51.51,0,0,0,.5-.5.5.5,0,0,0-.5-.5H8a.46.46,0,0,0-.45.5A.54.54,0,0,0,8.08,4.91Z"/><path class="cls-1" d="M11.74,4.91h.09a.5.5,0,0,0,.5-.5.5.5,0,0,0-.5-.5h-.18a.46.46,0,0,0-.46.5A.55.55,0,0,0,11.74,4.91Z"/><path class="cls-1" d="M23.88,11.12H20.75a.5.5,0,0,0-.5.5v11.5a.5.5,0,0,0,.5.5h3.13a.5.5,0,0,0,.5-.5V11.62A.51.51,0,0,0,23.88,11.12Zm-.5,11.5H21.25V12.12h2.13Z"/><path class="cls-1" d="M18.06,14.48H14.94a.5.5,0,0,0-.5.5v8.14a.5.5,0,0,0,.5.5h3.12a.5.5,0,0,0,.5-.5V15A.5.5,0,0,0,18.06,14.48Zm-.5,8.14H15.44V15.48h2.12Z"/><path class="cls-1" d="M12.25,17.84H9.13a.5.5,0,0,0-.5.5v4.78a.5.5,0,0,0,.5.5h3.12a.5.5,0,0,0,.5-.5V18.34A.5.5,0,0,0,12.25,17.84Zm-.5,4.78H9.63V18.84h2.12Z"/></g></g></svg>