<svg xmlns="http://www.w3.org/2000/svg" viewBox="0 0 33 25.35"><defs><style>.cls-1{fill:#5e7e9b;}</style></defs><g id="Ebene_2" data-name="Ebene 2"><g id="Ebene_1-2" data-name="Ebene 1"><path class="cls-1" d="M.5,6.2H10.71v4.88a.5.5,0,0,0,.5.5H21.79a.5.5,0,0,0,.5-.5V6.29H32.5a.5.5,0,0,0,0-1H22.29V.5a.41.41,0,0,0,0-.19A.48.48,0,0,0,22,0a.41.41,0,0,0-.19,0H11.21a.5.5,0,0,0-.5.5V5.2H.5a.5.5,0,0,0,0,1Zm20.79-1,0,0-5.33,5.32H12.42l8.87-8.87Zm-3.95,5.35,3.95-3.95v4ZM20.58,1,11.71,9.88V6.14a1,1,0,0,0,.13-.09l5.05-5h3.69ZM14.66,1h.81L11.71,4.77V1Z"/><path class="cls-1" d="M32.5,19.06H27.58v-4.8a.5.5,0,0,0-.5-.5H5.92a.5.5,0,0,0-.5.5v4.8H.5a.5.5,0,0,0-.5.5.5.5,0,0,0,.5.5H5.42v4.79a.5.5,0,0,0,.5.5H27.08a.5.5,0,0,0,.5-.5V20.06H32.5a.5.5,0,0,0,.5-.5A.5.5,0,0,0,32.5,19.06Zm-5.92,5.29H6.42V14.76H26.58Z"/></g></g></svg>