<?xml version="1.0" encoding="UTF-8"?>
<svg width="93px" height="30px" viewBox="0 0 93 30" version="1.1" xmlns="http://www.w3.org/2000/svg" xmlns:xlink="http://www.w3.org/1999/xlink">
    <title>Group 9</title>
    <defs>
        <polygon id="path-1" points="0 29.5248 92.912 29.5248 92.912 -0.0002 0 -0.0002"></polygon>
    </defs>
    <g id="06-Symbols" stroke="none" stroke-width="1" fill="none" fill-rule="evenodd">
        <g id="Atoms-/-Logo-/-Brand-/-Color" transform="translate(-4.000000, -16.000000)">
            <g id="Group-9" transform="translate(4.000000, 16.000000)">
                <path d="M28.7469,22.9802 C29.2259,23.6082 29.8839,24.0932 30.7189,24.4362 C31.5539,24.7802 32.6229,24.9512 33.9259,24.9512 C34.9549,24.9512 35.9599,24.7212 36.9449,24.2652 C37.9269,23.8082 38.7279,23.0652 39.3459,22.0362 L39.4489,22.0362 L39.4489,24.5042 L44.0789,24.5042 L44.0789,6.7732 L39.2079,6.7732 L39.2079,16.0682 C39.2079,17.8742 38.9119,19.1712 38.3169,19.9612 C37.7209,20.7512 36.7609,21.1452 35.4349,21.1452 C34.2689,21.1452 33.4569,20.7852 32.9999,20.0632 C32.5419,19.3432 32.3139,18.2522 32.3139,16.7882 L32.3139,6.7732 L27.4439,6.7732 L27.4439,17.6792 C27.4439,18.7782 27.5409,19.7782 27.7349,20.6812 C27.9299,21.5852 28.2669,22.3492 28.7469,22.9802" id="Fill-1" fill="#5F7E9B"></path>
                <mask id="mask-2" fill="white">
                    <use xlink:href="#path-1"></use>
                </mask>
                <g id="Clip-4"></g>
                <polygon id="Fill-3" fill="#5F7E9B" mask="url(#mask-2)" points="47.116 24.5048 51.987 24.5048 51.987 6.7738 47.116 6.7738"></polygon>
                <path d="M59.8949,15.2106 C59.8949,13.4046 60.1919,12.1066 60.7879,11.3176 C61.3809,10.5286 62.3419,10.1346 63.6669,10.1346 C64.8339,10.1346 65.6449,10.4946 66.1029,11.2146 C66.5599,11.9356 66.7899,13.0266 66.7899,14.4896 L66.7899,24.5046 L71.6609,24.5046 L71.6609,13.5986 C71.6609,12.5006 71.5619,11.5006 71.3699,10.5976 C71.1719,9.6936 70.8359,8.9286 70.3569,8.2996 C69.8769,7.6706 69.2189,7.1796 68.3839,6.8246 C67.5489,6.4706 66.4809,6.2926 65.1759,6.2926 C64.1479,6.2926 63.1429,6.5276 62.1589,6.9966 C61.1749,7.4646 60.3759,8.2136 59.7569,9.2416 L59.6549,9.2416 L59.6549,6.7726 L55.0249,6.7726 L55.0249,24.5046 L59.8949,24.5046 L59.8949,15.2106 Z" id="Fill-5" fill="#5F7E9B" mask="url(#mask-2)"></path>
                <path d="M83.6449,21.2282 C83.3369,21.4022 82.9939,21.5282 82.6169,21.6082 C82.2389,21.6882 81.8789,21.7272 81.5369,21.7272 C81.0559,21.7272 80.5929,21.6682 80.1459,21.5562 C79.7019,21.4402 79.3069,21.2652 78.9629,21.0242 C78.6199,20.7852 78.3409,20.4752 78.1239,20.0972 C77.9069,19.7212 77.7969,19.2692 77.7969,18.7442 L73.1679,18.7442 C73.2129,19.9332 73.4809,20.9212 73.9729,21.7102 C74.4639,22.4992 75.0939,23.1342 75.8599,23.6122 C76.6239,24.0932 77.4989,24.4362 78.4829,24.6422 C79.4669,24.8492 80.4739,24.9512 81.5009,24.9512 C82.5079,24.9512 83.4979,24.8542 84.4689,24.6592 C85.4409,24.4662 86.3049,24.1272 87.0579,23.6492 C87.8129,23.1672 88.4249,22.5342 88.8939,21.7442 C89.3619,20.9572 89.5969,19.9782 89.5969,18.8132 C89.5969,17.9882 89.4359,17.2972 89.1159,16.7372 C88.7949,16.1772 88.3729,15.7082 87.8469,15.3312 C87.3219,14.9532 86.7209,14.6512 86.0459,14.4212 C85.3729,14.1932 84.6799,13.9992 83.9719,13.8382 C83.2859,13.6792 82.6109,13.5302 81.9479,13.3932 C81.2839,13.2552 80.6969,13.1012 80.1809,12.9292 C79.6659,12.7582 79.2489,12.5352 78.9279,12.2602 C78.6099,11.9862 78.4499,11.6322 78.4499,11.1982 C78.4499,10.8322 78.5409,10.5402 78.7229,10.3232 C78.9069,10.1062 79.1299,9.9402 79.3939,9.8252 C79.6539,9.7112 79.9469,9.6372 80.2659,9.6032 C80.5859,9.5692 80.8849,9.5502 81.1589,9.5502 C82.0279,9.5502 82.7839,9.7172 83.4229,10.0482 C84.0639,10.3802 84.4169,11.0152 84.4869,11.9522 L89.1159,11.9522 C89.0239,10.8552 88.7459,9.9462 88.2759,9.2252 C87.8079,8.5052 87.2179,7.9282 86.5089,7.4942 C85.7989,7.0592 84.9949,6.7502 84.0899,6.5682 C83.1869,6.3842 82.2549,6.2922 81.2959,6.2922 C80.3359,6.2922 79.3979,6.3782 78.4829,6.5492 C77.5689,6.7212 76.7469,7.0182 76.0139,7.4422 C75.2829,7.8662 74.6929,8.4422 74.2489,9.1742 C73.7999,9.9062 73.5779,10.8432 73.5779,11.9862 C73.5779,12.7642 73.7389,13.4212 74.0579,13.9582 C74.3779,14.4972 74.8009,14.9422 75.3289,15.2962 C75.8539,15.6512 76.4539,15.9372 77.1279,16.1542 C77.8019,16.3722 78.4949,16.5602 79.2059,16.7202 C80.9409,17.0852 82.2939,17.4522 83.2679,17.8172 C84.2399,18.1822 84.7259,18.7332 84.7259,19.4642 C84.7259,19.8992 84.6229,20.2582 84.4169,20.5432 C84.2119,20.8312 83.9539,21.0592 83.6449,21.2282" id="Fill-6" fill="#5F7E9B" mask="url(#mask-2)"></path>
                <path d="M90.5433,28.8767 C89.5973,28.8767 88.8243,28.0407 88.8243,27.0137 C88.8243,25.9847 89.5973,25.1487 90.5433,25.1487 C91.4913,25.1487 92.2623,25.9847 92.2623,27.0137 C92.2623,28.0407 91.4913,28.8767 90.5433,28.8767 M19.2963,17.1777 C19.0073,18.1437 18.6213,18.9507 18.1383,19.6037 L12.5453,14.4467 L12.5633,19.7477 L14.9883,21.9557 C14.7953,22.1487 14.4693,22.2587 14.0113,22.2827 C13.5523,22.3067 13.1183,22.3187 12.7083,22.3187 C11.4283,22.3187 10.3423,22.0717 9.4493,21.5767 C8.5553,21.0817 7.8323,20.4247 7.2763,19.6037 C6.7213,18.7837 6.3173,17.8597 6.0643,16.8337 C5.8113,15.8077 5.6843,14.7517 5.6843,13.6657 C5.6843,12.5317 5.8113,11.4337 6.0643,10.3707 C6.3173,9.3097 6.7213,8.3607 7.2763,7.5287 C7.8323,6.6957 8.5553,6.0327 9.4493,5.5377 C10.3423,5.0437 11.4283,4.7957 12.7083,4.7957 C13.9873,4.7957 15.0733,5.0437 15.9663,5.5377 C16.8593,6.0327 17.5833,6.6957 18.1383,7.5287 C18.6933,8.3607 19.0983,9.3097 19.3513,10.3707 C19.6053,11.4337 19.7313,12.5317 19.7313,13.6657 C19.7313,15.0417 19.5863,16.2127 19.2963,17.1777 M90.5433,24.4987 C89.5463,24.4987 88.6953,25.1577 88.3463,26.0857 L25.1853,26.0887 L22.0483,23.1877 C23.1353,21.9557 23.9673,20.5337 24.5463,18.9147 C25.1263,17.2987 25.4163,15.5487 25.4163,13.6657 C25.4163,11.7337 25.1263,9.9427 24.5463,8.2887 C23.9673,6.6367 23.1353,5.1937 22.0483,3.9627 C20.9623,2.7307 19.6343,1.7677 18.0663,1.0667 C16.4973,0.3667 14.7113,0.0167 12.7083,0.0167 C10.7283,0.0167 8.9483,0.3667 7.3683,1.0667 C5.7863,1.7677 4.4533,2.7307 3.3673,3.9627 C2.2813,5.1937 1.4483,6.6367 0.8683,8.2887 C0.2893,9.9427 0.0003,11.7337 0.0003,13.6657 C0.0003,15.5487 0.2893,17.3047 0.8683,18.9337 C1.4483,20.5637 2.2813,21.9807 3.3673,23.1877 C4.4533,24.3957 5.7863,25.3397 7.3683,26.0287 C8.9483,26.7177 10.7283,27.0617 12.7083,27.0617 C15.1693,27.0617 17.2563,26.5667 18.9713,25.5767 L21.5073,27.8277 L21.5073,27.8317 L21.5113,27.8317 L21.5133,27.8327 L21.5223,27.8317 L88.3153,27.8337 C88.6393,28.8147 89.5103,29.5247 90.5433,29.5247 C91.8483,29.5247 92.9123,28.3977 92.9123,27.0137 C92.9123,25.6267 91.8483,24.4987 90.5433,24.4987" id="Fill-7" fill="#5F7E9B" mask="url(#mask-2)"></path>
                <path d="M49.5311,5.2448 C50.9801,5.2448 52.1541,4.0708 52.1541,2.6228 C52.1541,1.1738 50.9801,-0.0002 49.5311,-0.0002 C48.0821,-0.0002 46.9081,1.1738 46.9081,2.6228 C46.9081,4.0708 48.0821,5.2448 49.5311,5.2448" id="Fill-8" fill="#5F7E9B" mask="url(#mask-2)"></path>
            </g>
        </g>
    </g>
</svg>