<svg xmlns="http://www.w3.org/2000/svg" viewBox="0 0 26.95 31.96"><defs><style>.cls-1{fill:#5e7e9b;}</style></defs><g id="Ebene_2" data-name="Ebene 2"><g id="Ebene_1-2" data-name="Ebene 1"><path class="cls-1" d="M26.45,23.12H1.71l7-7a.5.5,0,0,0,0-.71.5.5,0,0,0-.7,0L.15,23.27a.36.36,0,0,0-.11.16.5.5,0,0,0,0,.38A.36.36,0,0,0,.15,24L8,31.81a.48.48,0,0,0,.7,0,.48.48,0,0,0,0-.7l-7-7H26.45a.5.5,0,0,0,0-1Z"/><path class="cls-1" d="M.5,8.84H25.25l-7,7a.5.5,0,0,0,0,.71.52.52,0,0,0,.35.14.54.54,0,0,0,.36-.14l7.84-7.85a.44.44,0,0,0,.1-.16.42.42,0,0,0,0-.38.44.44,0,0,0-.1-.16L19,.15a.5.5,0,0,0-.71,0,.48.48,0,0,0,0,.7l7,7H.5a.5.5,0,0,0,0,1Z"/></g></g></svg>