<svg width="250" height="250" viewBox="0 0 250 250" fill="none" xmlns="http://www.w3.org/2000/svg">
<path d="M129.449 24.2862C143.692 26.95 155.567 32.683 163.299 39.3845C171.199 46.2322 173.631 52.9167 172.686 57.971C171.741 63.0254 167.057 68.3787 157.216 71.9084C147.585 75.3628 134.44 76.4163 120.198 73.7527C105.955 71.0889 94.0793 65.3558 86.3478 58.6542C78.4477 51.8064 76.0149 45.122 76.9602 40.0676C77.9056 35.0133 82.5899 29.6599 92.4307 26.1302C102.062 22.6759 115.207 21.6224 129.449 24.2862Z" stroke="black" stroke-width="16"/>
<path d="M180.835 122.425C180.835 118.007 177.253 114.425 172.835 114.425C168.416 114.425 164.835 118.007 164.835 122.425L172.835 122.425L180.835 122.425ZM120.835 132.925L120.012 140.883L120.835 132.925ZM172.835 122.425L164.835 122.425C164.835 122.458 164.832 122.415 164.857 122.326C164.883 122.237 164.918 122.17 164.938 122.139C164.972 122.085 164.838 122.327 164.182 122.739C162.738 123.645 159.983 124.625 155.574 125.293C146.892 126.609 134.688 126.315 121.658 124.968L120.835 132.925L120.012 140.883C133.482 142.276 147.278 142.733 157.971 141.113C163.249 140.313 168.526 138.904 172.691 136.289C177.155 133.486 180.835 128.887 180.835 122.425L172.835 122.425ZM120.835 132.925L121.658 124.968C109.419 123.701 99.6807 120.154 93.2408 115.991C86.4132 111.577 84.8349 107.619 84.8349 105.925L76.8349 105.925H68.8349C68.8349 115.732 76.0067 123.902 84.5542 129.428C93.4893 135.204 105.751 139.407 120.012 140.883L120.835 132.925Z" fill="black"/>
<path d="M76.8351 40.925V105.925" stroke="black" stroke-width="16"/>
<path d="M180.835 57.925C180.835 53.5068 177.253 49.925 172.835 49.925C168.417 49.925 164.835 53.5068 164.835 57.925H172.835H180.835ZM172.835 57.925H164.835V122.925H172.835H180.835V57.925H172.835Z" fill="black"/>
<path d="M102 129V155" stroke="black" stroke-width="16" stroke-linecap="round"/>
<path d="M143 137V172" stroke="black" stroke-width="16" stroke-linecap="round"/>
<path d="M146.738 191.266C153.807 194.398 157 202.668 153.868 209.739C150.736 216.81 142.466 220.002 135.397 216.871C128.328 213.74 125.135 205.47 128.267 198.399C131.399 191.328 139.67 188.135 146.738 191.266Z" stroke="black" stroke-width="10"/>
<path d="M105.738 173.266C112.807 176.398 116 184.668 112.868 191.739C109.736 198.81 101.466 202.002 94.3972 198.871C87.3282 195.74 84.1353 187.47 87.2673 180.399C90.3995 173.328 98.6695 170.135 105.738 173.266Z" stroke="black" stroke-width="10"/>
</svg>
