{
	"asset":{
		"generator":"Khronos glTF Blender I/O v4.3.47",
		"version":"2.0"
	},
	"scene":0,
	"scenes":[
		{
			"name":"Scene",
			"nodes":[
				0
			]
		}
	],
	"nodes":[
		{
			"mesh":0,
			"name":"spezialhalter tht fokus-Body",
			"scale":[
				0.03516721352934837,
				0.03516721352934837,
				0.03516721352934837
			]
		}
	],
	"materials":[
		{
			"doubleSided":true,
			"name":"Schwarz",
			"pbrMetallicRoughness":{
				"baseColorFactor":[
					0.012429045513272285,
					0.012429045513272285,
					0.012429045513272285,
					1
				],
				"metallicFactor":0
			}
		}
	],
	"meshes":[
		{
			"name":"spezialhalter tht fokus-Body",
			"primitives":[
				{
					"attributes":{
						"POSITION":0,
						"NORMAL":1
					},
					"indices":2,
					"material":0
				}
			]
		}
	],
	"accessors":[
		{
			"bufferView":0,
			"componentType":5126,
			"count":388,
			"max":[
				4.986361503601074,
				50.000640869140625,
				5.147058963775635
			],
			"min":[
				-5.013638496398926,
				0.0006418228149414062,
				-4.852941036224365
			],
			"type":"VEC3"
		},
		{
			"bufferView":1,
			"componentType":5126,
			"count":388,
			"type":"VEC3"
		},
		{
			"bufferView":2,
			"componentType":5123,
			"count":1038,
			"type":"SCALAR"
		}
	],
	"bufferViews":[
		{
			"buffer":0,
			"byteLength":4656,
			"byteOffset":0,
			"target":34962
		},
		{
			"buffer":0,
			"byteLength":4656,
			"byteOffset":4656,
			"target":34962
		},
		{
			"buffer":0,
			"byteLength":2076,
			"byteOffset":9312,
			"target":34963
		}
	],
	"buffers":[
		{
			"byteLength":11388,
			"uri":"HalterTHTFokusThin.bin"
		}
	]
}
