{
	"asset":{
		"generator":"Khronos glTF Blender I/O v4.3.47",
		"version":"2.0"
	},
	"scene":0,
	"scenes":[
		{
			"name":"Scene",
			"nodes":[
				0
			]
		}
	],
	"nodes":[
		{
			"mesh":0,
			"name":"SPEZIALHALTERFINAL25-Body",
			"rotation":[
				-0.7071068286895752,
				0,
				-0.7071067094802856,
				5.338507591545749e-08
			],
			"scale":[
				0.03516721352934837,
				0.03516721352934837,
				0.03516721352934837
			],
			"translation":[
				0,
				1.3040574789047241,
				0
			]
		}
	],
	"materials":[
		{
			"doubleSided":true,
			"name":"Schwarz",
			"pbrMetallicRoughness":{
				"baseColorFactor":[
					0.012429045513272285,
					0.012429045513272285,
					0.012429045513272285,
					1
				],
				"metallicFactor":0
			}
		},
		{
			"doubleSided":true,
			"name":"Metal",
			"pbrMetallicRoughness":{
				"baseColorFactor":[
					0.34000164270401,
					0.34000164270401,
					0.34000164270401,
					1
				],
				"metallicFactor":0.5227273106575012,
				"roughnessFactor":0.5
			}
		}
	],
	"meshes":[
		{
			"name":"SPEZIALHALTERFINAL25-Body",
			"primitives":[
				{
					"attributes":{
						"POSITION":0,
						"NORMAL":1,
						"TEXCOORD_0":2
					},
					"indices":3,
					"material":0
				},
				{
					"attributes":{
						"POSITION":4,
						"NORMAL":5,
						"TEXCOORD_0":6
					},
					"indices":7,
					"material":1
				}
			]
		}
	],
	"accessors":[
		{
			"bufferView":0,
			"componentType":5126,
			"count":120,
			"max":[
				27.16666030883789,
				37.01036834716797,
				9.999999046325684
			],
			"min":[
				-25.83333969116211,
				0.010370731353759766,
				-10.000000953674316
			],
			"type":"VEC3"
		},
		{
			"bufferView":1,
			"componentType":5126,
			"count":120,
			"type":"VEC3"
		},
		{
			"bufferView":2,
			"componentType":5126,
			"count":120,
			"type":"VEC2"
		},
		{
			"bufferView":3,
			"componentType":5123,
			"count":636,
			"type":"SCALAR"
		},
		{
			"bufferView":4,
			"componentType":5126,
			"count":11140,
			"max":[
				-8.756797790527344,
				0.07187652587890625,
				7.91862154006958
			],
			"min":[
				-24.593929290771484,
				-7.533233642578125,
				-7.918510437011719
			],
			"type":"VEC3"
		},
		{
			"bufferView":5,
			"componentType":5126,
			"count":11140,
			"type":"VEC3"
		},
		{
			"bufferView":6,
			"componentType":5126,
			"count":11140,
			"type":"VEC2"
		},
		{
			"bufferView":7,
			"componentType":5123,
			"count":66420,
			"type":"SCALAR"
		}
	],
	"bufferViews":[
		{
			"buffer":0,
			"byteLength":1440,
			"byteOffset":0,
			"target":34962
		},
		{
			"buffer":0,
			"byteLength":1440,
			"byteOffset":1440,
			"target":34962
		},
		{
			"buffer":0,
			"byteLength":960,
			"byteOffset":2880,
			"target":34962
		},
		{
			"buffer":0,
			"byteLength":1272,
			"byteOffset":3840,
			"target":34963
		},
		{
			"buffer":0,
			"byteLength":133680,
			"byteOffset":5112,
			"target":34962
		},
		{
			"buffer":0,
			"byteLength":133680,
			"byteOffset":138792,
			"target":34962
		},
		{
			"buffer":0,
			"byteLength":89120,
			"byteOffset":272472,
			"target":34962
		},
		{
			"buffer":0,
			"byteLength":132840,
			"byteOffset":361592,
			"target":34963
		}
	],
	"buffers":[
		{
			"byteLength":494432,
			"uri":"HalterTHTFokusAngle.bin"
		}
	]
}
