{
	"asset":{
		"generator":"Khronos glTF Blender I/O v4.3.47",
		"version":"2.0"
	},
	"scene":0,
	"scenes":[
		{
			"name":"Scene",
			"nodes":[
				0
			]
		}
	],
	"nodes":[
		{
			"mesh":0,
			"name":"spezialhalter tht fokus 2-Body",
			"scale":[
				0.03516721352934837,
				0.03516721352934837,
				0.03516721352934837
			]
		}
	],
	"materials":[
		{
			"doubleSided":true,
			"name":"Schwarz",
			"pbrMetallicRoughness":{
				"baseColorFactor":[
					0.012429045513272285,
					0.012429045513272285,
					0.012429045513272285,
					1
				],
				"metallicFactor":0
			}
		}
	],
	"meshes":[
		{
			"name":"spezialhalter tht fokus 2-Body",
			"primitives":[
				{
					"attributes":{
						"POSITION":0,
						"NORMAL":1
					},
					"indices":2,
					"material":0
				}
			]
		}
	],
	"accessors":[
		{
			"bufferView":0,
			"componentType":5126,
			"count":315,
			"max":[
				12.500007629394531,
				53.881988525390625,
				9.911775588989258
			],
			"min":[
				-12.500001907348633,
				-0.11802864074707031,
				-15.088239669799805
			],
			"type":"VEC3"
		},
		{
			"bufferView":1,
			"componentType":5126,
			"count":315,
			"type":"VEC3"
		},
		{
			"bufferView":2,
			"componentType":5123,
			"count":1152,
			"type":"SCALAR"
		}
	],
	"bufferViews":[
		{
			"buffer":0,
			"byteLength":3780,
			"byteOffset":0,
			"target":34962
		},
		{
			"buffer":0,
			"byteLength":3780,
			"byteOffset":3780,
			"target":34962
		},
		{
			"buffer":0,
			"byteLength":2304,
			"byteOffset":7560,
			"target":34963
		}
	],
	"buffers":[
		{
			"byteLength":9864,
			"uri":"HalterTHTFokus.bin"
		}
	]
}
