{
	"asset":{
		"generator":"Khronos glTF Blender I/O v4.3.47",
		"version":"2.0"
	},
	"scene":0,
	"scenes":[
		{
			"name":"Scene",
			"nodes":[
				0
			]
		}
	],
	"nodes":[
		{
			"mesh":0,
			"name":"KlotzSchubladeNeu-Body",
			"scale":[
				0.03516721352934837,
				0.03516721352934837,
				0.03516721352934837
			]
		}
	],
	"materials":[
		{
			"doubleSided":true,
			"name":"Schwarz",
			"pbrMetallicRoughness":{
				"baseColorFactor":[
					0.012429045513272285,
					0.012429045513272285,
					0.012429045513272285,
					1
				],
				"metallicFactor":0
			}
		}
	],
	"meshes":[
		{
			"name":"KlotzSchubladeNeu-Body",
			"primitives":[
				{
					"attributes":{
						"POSITION":0,
						"NORMAL":1
					},
					"indices":2,
					"material":0
				}
			]
		}
	],
	"accessors":[
		{
			"bufferView":0,
			"componentType":5126,
			"count":351,
			"max":[
				13.49594783782959,
				74.00251007080078,
				20
			],
			"min":[
				-11.50405216217041,
				0.016481399536132812,
				-20
			],
			"type":"VEC3"
		},
		{
			"bufferView":1,
			"componentType":5126,
			"count":351,
			"type":"VEC3"
		},
		{
			"bufferView":2,
			"componentType":5123,
			"count":1632,
			"type":"SCALAR"
		}
	],
	"bufferViews":[
		{
			"buffer":0,
			"byteLength":4212,
			"byteOffset":0,
			"target":34962
		},
		{
			"buffer":0,
			"byteLength":4212,
			"byteOffset":4212,
			"target":34962
		},
		{
			"buffer":0,
			"byteLength":3264,
			"byteOffset":8424,
			"target":34963
		}
	],
	"buffers":[
		{
			"byteLength":11688,
			"uri":"klotzSchublade.bin"
		}
	]
}
