{
	"asset":{
		"generator":"Khronos glTF Blender I/O v4.3.47",
		"version":"2.0"
	},
	"scene":0,
	"scenes":[
		{
			"name":"Scene",
			"nodes":[
				0
			]
		}
	],
	"nodes":[
		{
			"mesh":0,
			"name":"Mittenunterstuetzung-Body",
			"scale":[
				0.03516721352934837,
				0.03516721352934837,
				0.03516721352934837
			]
		}
	],
	"materials":[
		{
			"doubleSided":true,
			"name":"Schwarz",
			"pbrMetallicRoughness":{
				"baseColorFactor":[
					0.012429045513272285,
					0.012429045513272285,
					0.012429045513272285,
					1
				],
				"metallicFactor":0
			}
		},
		{
			"doubleSided":true,
			"name":"Metal",
			"pbrMetallicRoughness":{
				"baseColorFactor":[
					0.34000164270401,
					0.34000164270401,
					0.34000164270401,
					1
				],
				"metallicFactor":0.5227273106575012,
				"roughnessFactor":0.5
			}
		}
	],
	"meshes":[
		{
			"name":"Mittenunterstuetzung-Body",
			"primitives":[
				{
					"attributes":{
						"POSITION":0,
						"NORMAL":1,
						"TEXCOORD_0":2
					},
					"indices":3,
					"material":0
				},
				{
					"attributes":{
						"POSITION":4,
						"NORMAL":5,
						"TEXCOORD_0":6
					},
					"indices":7,
					"material":1
				}
			]
		}
	],
	"accessors":[
		{
			"bufferView":0,
			"componentType":5126,
			"count":956,
			"max":[
				40,
				19.988094329833984,
				10
			],
			"min":[
				-40,
				-0.011904716491699219,
				-10
			],
			"type":"VEC3"
		},
		{
			"bufferView":1,
			"componentType":5126,
			"count":956,
			"type":"VEC3"
		},
		{
			"bufferView":2,
			"componentType":5126,
			"count":956,
			"type":"VEC2"
		},
		{
			"bufferView":3,
			"componentType":5123,
			"count":1860,
			"type":"SCALAR"
		},
		{
			"bufferView":4,
			"componentType":5126,
			"count":13662,
			"max":[
				23.92978858947754,
				53.09577941894531,
				4.537729263305664
			],
			"min":[
				-23.92978858947754,
				17.49228286743164,
				-4.537729263305664
			],
			"type":"VEC3"
		},
		{
			"bufferView":5,
			"componentType":5126,
			"count":13662,
			"type":"VEC3"
		},
		{
			"bufferView":6,
			"componentType":5126,
			"count":13662,
			"type":"VEC2"
		},
		{
			"bufferView":7,
			"componentType":5123,
			"count":20652,
			"type":"SCALAR"
		}
	],
	"bufferViews":[
		{
			"buffer":0,
			"byteLength":11472,
			"byteOffset":0,
			"target":34962
		},
		{
			"buffer":0,
			"byteLength":11472,
			"byteOffset":11472,
			"target":34962
		},
		{
			"buffer":0,
			"byteLength":7648,
			"byteOffset":22944,
			"target":34962
		},
		{
			"buffer":0,
			"byteLength":3720,
			"byteOffset":30592,
			"target":34963
		},
		{
			"buffer":0,
			"byteLength":163944,
			"byteOffset":34312,
			"target":34962
		},
		{
			"buffer":0,
			"byteLength":163944,
			"byteOffset":198256,
			"target":34962
		},
		{
			"buffer":0,
			"byteLength":109296,
			"byteOffset":362200,
			"target":34962
		},
		{
			"buffer":0,
			"byteLength":41304,
			"byteOffset":471496,
			"target":34963
		}
	],
	"buffers":[
		{
			"byteLength":512800,
			"uri":"MagnetMitteUnterstuetzung.bin"
		}
	]
}
