{
	"asset":{
		"generator":"Khronos glTF Blender I/O v4.3.47",
		"version":"2.0"
	},
	"scene":0,
	"scenes":[
		{
			"name":"Scene",
			"nodes":[
				0
			]
		}
	],
	"nodes":[
		{
			"mesh":0,
			"name":"Magnethalter I LC 25-Body",
			"scale":[
				0.03516721352934837,
				0.03516721352934837,
				0.03516721352934837
			]
		}
	],
	"materials":[
		{
			"doubleSided":true,
			"name":"Schwarz",
			"pbrMetallicRoughness":{
				"baseColorFactor":[
					0.012429045513272285,
					0.012429045513272285,
					0.012429045513272285,
					1
				],
				"metallicFactor":0
			}
		},
		{
			"doubleSided":true,
			"name":"Metal",
			"pbrMetallicRoughness":{
				"baseColorFactor":[
					0.34000164270401,
					0.34000164270401,
					0.34000164270401,
					1
				],
				"metallicFactor":0.5227273106575012,
				"roughnessFactor":0.5
			}
		}
	],
	"meshes":[
		{
			"name":"Magnethalter I LC 25-Body",
			"primitives":[
				{
					"attributes":{
						"POSITION":0,
						"NORMAL":1,
						"TEXCOORD_0":2
					},
					"indices":3,
					"material":0
				},
				{
					"attributes":{
						"POSITION":4,
						"NORMAL":5,
						"TEXCOORD_0":6
					},
					"indices":7,
					"material":1
				}
			]
		}
	],
	"accessors":[
		{
			"bufferView":0,
			"componentType":5126,
			"count":146,
			"max":[
				29.999998092651367,
				15.033742904663086,
				15.380952835083008
			],
			"min":[
				-30.000001907348633,
				0.03374290466308594,
				-9.619047164916992
			],
			"type":"VEC3"
		},
		{
			"bufferView":1,
			"componentType":5126,
			"count":146,
			"type":"VEC3"
		},
		{
			"bufferView":2,
			"componentType":5126,
			"count":146,
			"type":"VEC2"
		},
		{
			"bufferView":3,
			"componentType":5123,
			"count":660,
			"type":"SCALAR"
		},
		{
			"bufferView":4,
			"componentType":5126,
			"count":11926,
			"max":[
				7.917685031890869,
				24.55167579650879,
				3.7931900024414062
			],
			"min":[
				-7.919445991516113,
				13.699568748474121,
				-12.043941497802734
			],
			"type":"VEC3"
		},
		{
			"bufferView":5,
			"componentType":5126,
			"count":11926,
			"type":"VEC3"
		},
		{
			"bufferView":6,
			"componentType":5126,
			"count":11926,
			"type":"VEC2"
		},
		{
			"bufferView":7,
			"componentType":5123,
			"count":70434,
			"type":"SCALAR"
		}
	],
	"bufferViews":[
		{
			"buffer":0,
			"byteLength":1752,
			"byteOffset":0,
			"target":34962
		},
		{
			"buffer":0,
			"byteLength":1752,
			"byteOffset":1752,
			"target":34962
		},
		{
			"buffer":0,
			"byteLength":1168,
			"byteOffset":3504,
			"target":34962
		},
		{
			"buffer":0,
			"byteLength":1320,
			"byteOffset":4672,
			"target":34963
		},
		{
			"buffer":0,
			"byteLength":143112,
			"byteOffset":5992,
			"target":34962
		},
		{
			"buffer":0,
			"byteLength":143112,
			"byteOffset":149104,
			"target":34962
		},
		{
			"buffer":0,
			"byteLength":95408,
			"byteOffset":292216,
			"target":34962
		},
		{
			"buffer":0,
			"byteLength":140868,
			"byteOffset":387624,
			"target":34963
		}
	],
	"buffers":[
		{
			"byteLength":528492,
			"uri":"MagnetHalterI.bin"
		}
	]
}
