{
	"asset":{
		"generator":"Khronos glTF Blender I/O v4.3.47",
		"version":"2.0"
	},
	"scene":0,
	"scenes":[
		{
			"name":"Scene",
			"nodes":[
				0
			]
		}
	],
	"nodes":[
		{
			"mesh":0,
			"name":"Magnethalter L",
			"rotation":[
				0,
				-0.7071068286895752,
				0,
				0.7071068286895752
			]
		}
	],
	"materials":[
		{
			"doubleSided":true,
			"name":"Schwarz",
			"pbrMetallicRoughness":{
				"baseColorFactor":[
					0.012429045513272285,
					0.012429045513272285,
					0.012429045513272285,
					1
				],
				"metallicFactor":0
			}
		},
		{
			"doubleSided":true,
			"name":"Metal",
			"pbrMetallicRoughness":{
				"baseColorFactor":[
					0.34000164270401,
					0.34000164270401,
					0.34000164270401,
					1
				],
				"metallicFactor":0.5227273106575012,
				"roughnessFactor":0.5
			}
		}
	],
	"meshes":[
		{
			"name":"Cube.002",
			"primitives":[
				{
					"attributes":{
						"POSITION":0,
						"NORMAL":1,
						"TEXCOORD_0":2
					},
					"indices":3,
					"material":0
				},
				{
					"attributes":{
						"POSITION":4,
						"NORMAL":5,
						"TEXCOORD_0":6
					},
					"indices":7,
					"material":1
				}
			]
		}
	],
	"accessors":[
		{
			"bufferView":0,
			"componentType":5126,
			"count":217,
			"max":[
				1.4810941219329834,
				0.5306721925735474,
				2.1052026748657227
			],
			"min":[
				-1.6251901388168335,
				0.001186643959954381,
				-1.794491171836853
			],
			"type":"VEC3"
		},
		{
			"bufferView":1,
			"componentType":5126,
			"count":217,
			"type":"VEC3"
		},
		{
			"bufferView":2,
			"componentType":5126,
			"count":217,
			"type":"VEC2"
		},
		{
			"bufferView":3,
			"componentType":5123,
			"count":804,
			"type":"SCALAR"
		},
		{
			"bufferView":4,
			"componentType":5126,
			"count":35780,
			"max":[
				0.7045208215713501,
				0.8634142279624939,
				2.190849781036377
			],
			"min":[
				-1.7117058038711548,
				0.4817756712436676,
				-1.879767894744873
			],
			"type":"VEC3"
		},
		{
			"bufferView":5,
			"componentType":5126,
			"count":35780,
			"type":"VEC3"
		},
		{
			"bufferView":6,
			"componentType":5126,
			"count":35780,
			"type":"VEC2"
		},
		{
			"bufferView":7,
			"componentType":5123,
			"count":211314,
			"type":"SCALAR"
		}
	],
	"bufferViews":[
		{
			"buffer":0,
			"byteLength":2604,
			"byteOffset":0,
			"target":34962
		},
		{
			"buffer":0,
			"byteLength":2604,
			"byteOffset":2604,
			"target":34962
		},
		{
			"buffer":0,
			"byteLength":1736,
			"byteOffset":5208,
			"target":34962
		},
		{
			"buffer":0,
			"byteLength":1608,
			"byteOffset":6944,
			"target":34963
		},
		{
			"buffer":0,
			"byteLength":429360,
			"byteOffset":8552,
			"target":34962
		},
		{
			"buffer":0,
			"byteLength":429360,
			"byteOffset":437912,
			"target":34962
		},
		{
			"buffer":0,
			"byteLength":286240,
			"byteOffset":867272,
			"target":34962
		},
		{
			"buffer":0,
			"byteLength":422628,
			"byteOffset":1153512,
			"target":34963
		}
	],
	"buffers":[
		{
			"byteLength":1576140,
			"uri":"MagnetHalterL.bin"
		}
	]
}
